<?xml version="1.0" encoding="UTF-8" standalone="no"?>
<!-- Created with Inkscape (http://www.inkscape.org/) -->

<svg
   xmlns:dc="http://purl.org/dc/elements/1.1/"
   xmlns:cc="http://creativecommons.org/ns#"
   xmlns:rdf="http://www.w3.org/1999/02/22-rdf-syntax-ns#"
   xmlns:svg="http://www.w3.org/2000/svg"
   xmlns="http://www.w3.org/2000/svg"
   version="1.1"
   width="69"
   height="68"
   id="svg5177">
  <defs
     id="defs5179" />
  <metadata
     id="metadata5182">
    <rdf:RDF>
      <cc:Work
         rdf:about="">
        <dc:format>image/svg+xml</dc:format>
        <dc:type
           rdf:resource="http://purl.org/dc/dcmitype/StillImage" />
        <dc:title></dc:title>
      </cc:Work>
    </rdf:RDF>
  </metadata>
  <g
     id="previousImage">
    <path
       d="m 157,88.862183 a 55.5,55.5 0 1 1 -111,-3e-6"
       transform="matrix(-0.00366781,-0.60828212,0.61388415,0,-53.975239,95.980978)"
       id="previousBack"
       style="fill:#b3b3b3;fill-rule:evenodd;stroke:none" />
    <path
       d="m 28.849998,31.880691 0,4.5 -12.9,0.1 1.7,6.9 -14.7000006,-9.1 14.7000006,-9.2 -2,7 z"
       id="previousArrow"
       style="fill:#ffffff;fill-opacity:1;stroke:none" />
  </g>
  <g
     id="nextImage">
    <path
       d="m 157,88.862183 a 55.5,55.5 0 1 1 -111,-3e-6"
       transform="matrix(0.00366781,0.60828212,-0.61388415,0,123.11262,-27.500293)"
       id="nextBack"
       style="fill:#b3b3b3;fill-rule:evenodd;stroke:none" />
    <path
       d="m 37.81261,36.580691 0,-4.5 12.9,-0.1 -1.7,-6.9 14.7,9.1 -14.7,9.2 2,-7 z"
       id="nextArrow"
       style="fill:#ffffff;fill-opacity:1;stroke:none" />
  </g>
</svg>
